FDS_states
version=1
nRows=4
nColumns=142
inDegrees=yes

# SIMM Motion File Header:
name FDS_states
datacolumns 142
datarows 4
otherdata 1
range 1.41314614870195143226 1.41585863037221493244
endheader
time	/jointset/groundthorax/r_z/value	/jointset/groundthorax/r_z/speed	/jointset/sternoclavicular/sternoclavicular_r2/value	/jointset/sternoclavicular/sternoclavicular_r2/speed	/jointset/sternoclavicular/sternoclavicular_r3/value	/jointset/sternoclavicular/sternoclavicular_r3/speed	/jointset/unrotscap/unrotscap_r3/value	/jointset/unrotscap/unrotscap_r3/speed	/jointset/unrotscap/unrotscap_r2/value	/jointset/unrotscap/unrotscap_r2/speed	/jointset/acromioclavicular/acromioclavicular_r2/value	/jointset/acromioclavicular/acromioclavicular_r2/speed	/jointset/acromioclavicular/acromioclavicular_r3/value	/jointset/acromioclavicular/acromioclavicular_r3/speed	/jointset/acromioclavicular/acromioclavicular_r1/value	/jointset/acromioclavicular/acromioclavicular_r1/speed	/jointset/unrothum/unrothum_r1/value	/jointset/unrothum/unrothum_r1/speed	/jointset/unrothum/unrothum_r3/value	/jointset/unrothum/unrothum_r3/speed	/jointset/unrothum/unrothum_r2/value	/jointset/unrothum/unrothum_r2/speed	/jointset/shoulder0/elv_angle/value	/jointset/shoulder0/elv_angle/speed	/jointset/shoulder1/shoulder_elv/value	/jointset/shoulder1/shoulder_elv/speed	/jointset/shoulder1/shoulder1_r2/value	/jointset/shoulder1/shoulder1_r2/speed	/jointset/shoulder2/shoulder_rot/value	/jointset/shoulder2/shoulder_rot/speed	/jointset/elbow/elbow_flexion/value	/jointset/elbow/elbow_flexion/speed	/jointset/radioulnar/pro_sup/value	/jointset/radioulnar/pro_sup/speed	/jointset/radiocarpal/deviation/value	/jointset/radiocarpal/deviation/speed	/jointset/radiocarpal/flexion/value	/jointset/radiocarpal/flexion/speed	/jointset/wrist_hand/wrist_hand_r1/value	/jointset/wrist_hand/wrist_hand_r1/speed	/jointset/wrist_hand/wrist_hand_r3/value	/jointset/wrist_hand/wrist_hand_r3/speed	/forceset/DELT1/activation	/forceset/DELT1/fiber_length	/forceset/DELT2/activation	/forceset/DELT2/fiber_length	/forceset/DELT3/activation	/forceset/DELT3/fiber_length	/forceset/SUPSP/activation	/forceset/SUPSP/fiber_length	/forceset/INFSP/activation	/forceset/INFSP/fiber_length	/forceset/SUBSC/activation	/forceset/SUBSC/fiber_length	/forceset/TMIN/activation	/forceset/TMIN/fiber_length	/forceset/TMAJ/activation	/forceset/TMAJ/fiber_length	/forceset/PECM1/activation	/forceset/PECM2/activation	/forceset/PECM2/fiber_length	/forceset/PECM3/activation	/forceset/PECM3/fiber_length	/forceset/LAT1/activation	/forceset/LAT1/fiber_length	/forceset/LAT2/activation	/forceset/LAT2/fiber_length	/forceset/LAT3/activation	/forceset/LAT3/fiber_length	/forceset/CORB/activation	/forceset/CORB/fiber_length	/forceset/TRIlong/activation	/forceset/TRIlong/fiber_length	/forceset/TRIlat/activation	/forceset/TRIlat/fiber_length	/forceset/TRImed/activation	/forceset/TRImed/fiber_length	/forceset/ANC/activation	/forceset/ANC/fiber_length	/forceset/SUP/activation	/forceset/SUP/fiber_length	/forceset/BIClong/activation	/forceset/BIClong/fiber_length	/forceset/BICshort/activation	/forceset/BICshort/fiber_length	/forceset/BRA/activation	/forceset/BRA/fiber_length	/forceset/BRD/activation	/forceset/BRD/fiber_length	/forceset/ECRL/activation	/forceset/ECRL/fiber_length	/forceset/ECRB/activation	/forceset/ECRB/fiber_length	/forceset/ECU/activation	/forceset/ECU/fiber_length	/forceset/FCR/activation	/forceset/FCR/fiber_length	/forceset/FCU/activation	/forceset/FCU/fiber_length	/forceset/PL/activation	/forceset/PL/fiber_length	/forceset/PT/activation	/forceset/PT/fiber_length	/forceset/PQ/activation	/forceset/PQ/fiber_length	/forceset/FDSL/activation	/forceset/FDSL/fiber_length	/forceset/FDSR/activation	/forceset/FDSR/fiber_length	/forceset/FDSM/activation	/forceset/FDSM/fiber_length	/forceset/FDSI/activation	/forceset/FDSI/fiber_length	/forceset/FDPL/activation	/forceset/FDPL/fiber_length	/forceset/FDPR/activation	/forceset/FDPR/fiber_length	/forceset/FDPM/activation	/forceset/FDPM/fiber_length	/forceset/FDPI/activation	/forceset/FDPI/fiber_length	/forceset/EDCL/activation	/forceset/EDCL/fiber_length	/forceset/EDCR/activation	/forceset/EDCR/fiber_length	/forceset/EDCM/activation	/forceset/EDCM/fiber_length	/forceset/EDCI/activation	/forceset/EDCI/fiber_length	/forceset/EDM/activation	/forceset/EDM/fiber_length	/forceset/EIP/activation	/forceset/EIP/fiber_length	/forceset/EPL/activation	/forceset/EPL/fiber_length	/forceset/EPB/activation	/forceset/EPB/fiber_length	/forceset/FPL/activation	/forceset/FPL/fiber_length	/forceset/APL/activation	/forceset/APL/fiber_length
      1.41314614870195143226	     10.00000027526368384656	      0.00000000049542625236	     -9.24622200666801852265	     -9.32226455826435973506	      3.91626324412370685479	      3.94847127996611524381	     -3.91626324412588955326	     -3.94847127996956936968	      9.24622200666791549395	      9.32226455826433841878	     -1.87217187372810323076	     -1.88756894360165650149	     15.13023453524036732176	     15.25466823794396553637	      6.80093629404258681603	      6.85686838702644063659	     -6.80093629404193489307	     -6.85686838702540502055	    -15.13023453523898886885	    -15.25466823794245030399	      1.87217187372533899747	      1.88756894359739058054	     59.91099293311709317322	     45.48119544774186095992	     38.20744331784728586854	     38.52166803338854350613	    -59.91099293311687290498	    -45.48119544774099409779	      4.56087931477493402355	     19.44599231617664258920	     61.42263115971813647320	    -96.12301698823095819080	     22.65169104868218497018	    -13.15821104795772988894	      0.00000000137146364260	      0.00000000000177813528	      0.00000000000150682752	      0.00000000000414053820	      0.00000010649403668146	     -0.00000000023205425383	      0.00000000006927598906	      0.00000000018080468354	      0.10300898600732665000	      0.09915160319905824693	      0.23889816894476928466	      0.08645747679497366167	      0.02391037331139259786	      0.13631967073436432325	      0.07155176094618696803	      0.06591301302669246021	      0.13396103226866915015	      0.07613954315566087705	      0.02581623269664849729	      0.08050911769817706287	      0.02225277066947780463	      0.06567080890651481873	      0.04460708398040459655	      0.14360077641427965167	      0.02002794040370858841	      0.02003912858501341598	      0.10138350909673624067	      0.02004453445386831373	      0.08055053582930005174	      0.02180354175442158343	      0.18349095914251592476	      0.02302489976156197812	      0.15260366372885109110	      0.02114660330828070992	      0.21748243710620895897	      0.02001359268216066495	      0.06915257889718315343	      0.02231616655823233375	      0.17678494877536674035	      0.02001285200208216541	      0.09482450237202738608	      0.02001306801098952717	      0.08976477840299397493	      0.02406612153845399255	      0.01591417506342909446	      0.02000000000000000042	      0.03629377117721113710	      0.03497550780254536640	      0.13052657775096287995	      0.02000000000000000042	      0.14718004382880095493	      0.05915180192682163718	      0.07861248971136733377	      0.03972114053907455783	      0.16291992117760950576	      0.06350291742814916096	      0.07567510460765283775	      0.09416736587172212791	      0.05969585037794859772	      0.10000575269705255788	      0.06766092688038806424	      0.02000000000000000042	      0.05642044968937539456	      0.02000000000000000042	      0.04013817120409271522	      0.02000000000000000042	      0.05714753036948612419	      0.05924130923012966426	      0.04605686458877803618	      0.02687485569740689223	      0.02366680820044856151	      0.02200471447457488100	      0.04217852465530961409	      0.02000000000000000042	      0.06415792070249010104	      0.02000000000000000042	      0.07218240156988499356	      0.02000000000000000042	      0.08436991465663287726	      0.02000000000000000042	      0.07399590762535998567	      0.02000000000000000042	      0.07785912117224481899	      0.02000000000000000042	      0.07404692104880085390	      0.02000000000000000042	      0.07358548105090362279	      0.02224578390092810457	      0.07941761680309315785	      0.07911732331264823004	      0.06655401994498234830	      0.05975841735890602413	      0.07867272194491077564	      0.03436720622362671868	      0.07249255582843515400	      0.03742900345261385847	      0.07775764951660114888	      0.02667337664101583281	      0.06579204192595394796	      0.02225572976663543062	      0.06272534101320562105	      0.02000000000000000042	      0.06764417275226813908	      0.02000000000000000042	      0.05968005991106239971	      0.02000000000000000042	      0.07039142965688129083
      1.41391743507004696845	     10.00000027526406576328	      0.00000000049510863264	     -9.25340327791274930291	     -9.29927124042039388030	      3.91930489168544005096	      3.93873239575286504532	     -3.91930489168762496988	     -3.93873239575635736287	      9.25340327791264805057	      9.29927124042036723495	     -1.87362593507686847616	     -1.88291326445831197489	     15.14198574758586524069	     15.21704267677188582297	      6.80621838311750071426	      6.83995595622687879711	     -6.80621838311684790312	     -6.83995595622582985840	    -15.14198574758448856414	    -15.21704267677035815609	      1.87362593507410069016	      1.88291326445403806034	     59.94603160152697540752	     45.37651624907807956788	     38.23711792590183478069	     38.42665453624572791114	    -59.94603160152676224470	    -45.37651624907721981117	      4.57584729608765350406	     19.36708841524746205209	     61.34855706608395564672	    -95.95544920932420041026	     22.64155388362292242732	    -13.11942827484116058656	      0.00000000137146501072	      0.00000000000176879499	      0.00000000000151000583	      0.00000000000410565779	      0.00000010649385824085	     -0.00000000023085347523	      0.00000000006941529056	      0.00000000018037065002	      0.10293306157002668488	      0.09912394011721563369	      0.23926565930154453099	      0.08645160721649697289	      0.02389073626873182421	      0.13633716015726793369	      0.07162236241312081031	      0.06591550274844608370	      0.13392942178289715671	      0.07614178170451323113	      0.02577679789748246048	      0.08050962127943493696	      0.02225018433059958167	      0.06567451367623459990	      0.04530447321507356101	      0.14361519876354494896	      0.02002765629735456590	      0.02003873070142729931	      0.10137723019923901291	      0.02004408159321616895	      0.08055189725078271135	      0.02178511159470485070	      0.18350428511880143012	      0.02299388348569713497	      0.15262324147689182441	      0.02113490777071783469	      0.21750485679629838476	      0.02001345447327137345	      0.06914827220479409509	      0.02229246413701318694	      0.17677148341917242602	      0.02001272132461715675	      0.09479776193783473470	      0.02001293513709398453	      0.08973809873185857600	      0.02407409507908243179	      0.01589883119818846779	      0.02000000000000000042	      0.03629249577178116776	      0.03511488478817163111	      0.13056074660783051344	      0.02000000000000000042	      0.14722157453883430445	      0.05941718531187820118	      0.07863353967165033487	      0.03975240242721295170	      0.16299652212729187628	      0.06349562585070517295	      0.07570146121933192529	      0.09414959218348074865	      0.05969670591476330251	      0.09988801733024825491	      0.06765440988460083571	      0.02000000000000000042	      0.05643699351542978693	      0.02000000000000000042	      0.04015123166983105424	      0.02000000000000000042	      0.05716559428873453641	      0.05944400218465446806	      0.04607239276027873948	      0.02686578854067946803	      0.02366814688199328498	      0.02200466626957582952	      0.04219494895503220905	      0.02000000000000000042	      0.06417201481480150349	      0.02000000000000000042	      0.07218272925086340053	      0.02000000000000000042	      0.08437030266620001995	      0.02000000000000000042	      0.07399611803084772677	      0.02000000000000000042	      0.07785934526102555875	      0.02000000000000000042	      0.07404721791136861797	      0.02000000000000000042	      0.07358582784538053589	      0.02224326909928006288	      0.07941482365019635059	      0.07907852577264967708	      0.06654988460826032071	      0.05973877917320922354	      0.07866876192341729079	      0.03436216450754014939	      0.07248958520136661310	      0.03742478325406827649	      0.07775250095187749566	      0.02667224878225026713	      0.06579201742174801970	      0.02225311312884730580	      0.06272510544707114721	      0.02000000000000000042	      0.06764417275226811133	      0.02000000000000000042	      0.05968005991106237890	      0.02000000000000000042	      0.07039142965688129083
      1.41493511930080972938	     10.00000027526457024862	      0.00000000049410219704	     -9.26285154798012477784	     -9.26890455389703582512	      3.92330673295192955408	      3.92587050057106656809	     -3.92330673295411846979	     -3.92587050057453579299	      9.26285154798002352550	      9.26890455389704115419	     -1.87553901757291607844	     -1.87676462814329947371	     15.15744660738012505874	     15.16735156089501757037	      6.81316793319003632945	      6.81762014162525442629	     -6.81316793318938174195	     -6.81762014162421525754	    -15.15744660737874482948	    -15.16735156089349700892	      1.87553901757014385154	      1.87676462813903000004	     59.99214018645571400157	     45.23816093581124420098	     38.27616027669014897583	     38.30117264177524560864	    -59.99214018645550083875	    -45.23816093581037023341	      4.59550384648167753454	     19.26282258454763862687	     61.25102044564571457386	    -95.72669552141471172035	     22.62826107167269995557	    -12.99096029760790749208	      0.00000000137146679939	      0.00000000000174656665	      0.00000000000151413302	      0.00000000000402098665	      0.00000010649362499727	     -0.00000000022764628946	      0.00000000006959833388	      0.00000000017894465281	      0.10283435662014496492	      0.09908759293673830015	      0.23970239620629818500	      0.08644385570286658438	      0.02386513605868629401	      0.13636016780635021317	      0.07170278797193295472	      0.06591881628524420833	      0.13388836448385346700	      0.07614472321573263758	      0.02572539445344668510	      0.08051030852383005143	      0.02224681222944852044	      0.06567937119173852811	      0.04608949234759941033	      0.14363197522873488721	      0.02002728584555888217	      0.02003821189367262223	      0.10136897415469349470	      0.02004349110006160492	      0.08055369638271080157	      0.02176108297991580925	      0.18352182342849771013	      0.02295344879489306933	      0.15264900820388549452	      0.02111965886295224040	      0.21753436879920773350	      0.02001327425984356784	      0.06914259612333462091	      0.02226156277725072422	      0.17675370392972211686	      0.02001255093156079426	      0.09476252793071110458	      0.02001276188006878912	      0.08970294508623340157	      0.02408300460704675475	      0.01587861781108608483	      0.02000000000000000042	      0.03629080992518895349	      0.03527133897459851924	      0.13060568772677483285	      0.02000000000000000042	      0.14727618702273179152	      0.05971796645552095856	      0.07866133638732426825	      0.03978757570667671578	      0.16309734597484609742	      0.06348613225749580313	      0.07573616894387993903	      0.09412647532355286617	      0.05969781572615939086	      0.09973495797901324456	      0.06764590340425510884	      0.02000000000000000042	      0.05645877127396504991	      0.02000000000000000042	      0.04016840987982743527	      0.02000000000000000042	      0.05718936447275857482	      0.05967377211523563346	      0.04609275645076520156	      0.02685396874026713468	      0.02366990515398085734	      0.02200460341825838037	      0.04221655944914991937	      0.02000000000000000042	      0.06419056665098160641	      0.02000000000000000042	      0.07218316466180056679	      0.02000000000000000042	      0.08437081832078811849	      0.02000000000000000042	      0.07399639762966039869	      0.02000000000000000042	      0.07785964305515004347	      0.02000000000000000042	      0.07404761240205108563	      0.02000000000000000042	      0.07358628858406475459	      0.02223999026775060756	      0.07941112790675222688	      0.07902804236368130009	      0.06654445501953798470	      0.05971320807315967649	      0.07866355271877926991	      0.03435559377195720326	      0.07248565186978325747	      0.03741928373055929125	      0.07774570625595153550	      0.02667077847678948205	      0.06579198485393274176	      0.02224970152426575948	      0.06272479144090241376	      0.02000000000000000042	      0.06764417275226811133	      0.02000000000000000042	      0.05968005991106237196	      0.02000000000000000042	      0.07039142965688127696
      1.41585863037221493244	     10.00000027526502499597	      0.00000000049228041058	     -9.27139874367760619123	     -9.24130332135404941596	      3.92692692164372481045	      3.91417992117303592536	     -3.92692692164591683479	     -3.91417992117650026529	      9.27139874367750493889	      9.24130332135405829774	     -1.87726965083832264547	     -1.87117594000561271450	     15.17143297667000823026	     15.12218574922229663571	      6.81945470992861668691	      6.79731842011926179481	     -6.81945470992796121124	     -6.79731842011823150784	    -15.17143297666862444828	    -15.12218574922077252154	      1.87726965083554642177	      1.87117594000132791976	     60.03386005161099348015	     45.11233869252832562324	     38.31147918801443097436	     38.18711821747869805677	    -60.03386005161077321191	    -45.11233869252744455025	      4.61325027224988293284	     19.17025968100480071143	     61.16271380856104400436	    -95.51377104048854960183	     22.61633524315626431189	    -12.83299370849897158564	      0.00000000137146840689	      0.00000000000172971777	      0.00000000000151783669	      0.00000000000399836108	      0.00000010649341508289	     -0.00000000022742828081	      0.00000000006976332740	      0.00000000017832603085	      0.10274621532085870257	      0.09905474029821023652	      0.24005611891885167419	      0.08643685362352644674	      0.02384220647471082047	      0.13638097843594179648	      0.07176497158248709707	      0.06592185704018949099	      0.13385173786483611780	      0.07614737647282589228	      0.02567935967958366247	      0.08051095452389638030	      0.02224379155142445705	      0.06568374898557288732	      0.04668892804587181089	      0.14364986756903744269	      0.02002695397088429669	      0.02003774711250614141	      0.10136151038568708138	      0.02004296209873276252	      0.08055533173674479797	      0.02173955931141416734	      0.18353769446556170153	      0.02291723250439051465	      0.15267232583910589350	      0.02110599899224867640	      0.21756108077500374565	      0.02001311281283629784	      0.06913745174338979671	      0.02223388384600409259	      0.17673755958062190019	      0.02001239828227825354	      0.09473060487905528293	      0.02001260666505739333	      0.08967109518798603573	      0.02408974887754590510	      0.01586030850084205190	      0.02000000000000000042	      0.03628928521212618219	      0.03539038266566493784	      0.13064646734125651140	      0.02000000000000000042	      0.14732557449320712872	      0.05994927502582630269	      0.07868661394120070318	      0.03981440350306121589	      0.16318858738521849205	      0.06347764091226890115	      0.07576758562839609745	      0.09410582257462872524	      0.05969880694687091510	      0.09959828045412484621	      0.06763826646683743227	      0.02000000000000000042	      0.05647848291786100594	      0.02000000000000000042	      0.04018394483947624468	      0.02000000000000000042	      0.05721087123685414388	      0.05985049642589749391	      0.04611119445814793050	      0.02684338274888867226	      0.02367148571201032822	      0.02200454711599028959	      0.04223611028569266429	      0.02000000000000000042	      0.06420735733643545551	      0.02000000000000000042	      0.07218356197242847827	      0.02000000000000000042	      0.08437128873539406770	      0.02000000000000000042	      0.07399665275562354594	      0.02000000000000000042	      0.07785991478049156256	      0.02000000000000000042	      0.07404797233123353029	      0.02000000000000000042	      0.07358670895766830644	      0.02223705313780589832	      0.07940776441873170777	      0.07898291829052393742	      0.06653955181653284368	      0.05969033428930289181	      0.07865883961117484113	      0.03434971044568080334	      0.07248206957872545264	      0.03741436008458690760	      0.07773953933869436062	      0.02666946160440199567	      0.06579195512711068228	      0.02224664546029979026	      0.06272450414011915276	      0.02000000000000000042	      0.06764417275226815296	      0.02000000000000000042	      0.05968005991106237890	      0.02000000000000000042	      0.07039142965688129083
